# xmcd
#
# Track frame offsets:
#	150
#	17418
#	42244
#	64631
#	88178
#	105912
#	129592
#	158027
#	176223
#	194637
#	215984
#	239327
#
# Disc length: 3470 seconds
#
# Revision: 0
# Processed by: cddbd v1.5.1PL0 Copyright (c) Steve Scherf et al.
# Submitted via: EasyCDDAExtractor 4.6.9.1
#
DISCID=a60d8c0c
DTITLE=Depeche Mode - First Stand In Vienna - CD1
DYEAR=1988
DGENRE=live
TTITLE0=Pimpf
TTITLE1=Behind The Wheel
TTITLE2=Strangelove
TTITLE3=Sacred
TTITLE4=Something To Do
TTITLE5=Blasphemous Rumours
TTITLE6=Stripped
TTITLE7=Pipeline
TTITLE8=Things You Said
TTITLE9=Black Celebration
TTITLE10=Shake The Disease
TTITLE11=Nothing
EXTD=
EXTT0=
EXTT1=
EXTT2=
EXTT3=
EXTT4=
EXTT5=
EXTT6=
EXTT7=
EXTT8=
EXTT9=
EXTT10=
EXTT11=
PLAYORDER=
